<?xml version="1.0" encoding="utf-8"?>
<!-- Generator: Adobe Illustrator 17.1.0, SVG Export Plug-In . SVG Version: 6.00 Build 0)  -->
<!DOCTYPE svg PUBLIC "-//W3C//DTD SVG 1.1//EN" "http://www.w3.org/Graphics/SVG/1.1/DTD/svg11.dtd">
<svg version="1.1" id="Layer_1" xmlns="http://www.w3.org/2000/svg" xmlns:xlink="http://www.w3.org/1999/xlink" x="0px" y="0px"
	 viewBox="0 0 408.4 408.2" enable-background="new 0 0 408.4 408.2" xml:space="preserve">
<g id="_x31_8GHxp.tif">
	<g>
		<path fill="#FFFFFF" d="M144.3,13.8c0,36.4,0,72.8,0,109.7c1.7-1.1,2.9-1.9,4.1-2.6c19.4-12.8,40.9-18.5,64-16.6
			c57.4,4.9,98.2,56.2,90.7,113.7c-7.2,55-60.2,94.3-114.8,85.2c-47.9-8-83.6-48-84.3-96.6c-0.8-55.6-0.2-111.3-0.2-167
			c0-2.4,0-4.9,0-7.6C29.4,72.2-21.6,174.2,18.2,276.8c40.1,103.3,156.3,153.9,260.1,112.7C381.9,348.5,431.9,229.3,388.4,127
			C343.1,20.7,229.3-14.9,144.3,13.8z M174.1,204.5C174.1,204.5,174.1,204.5,174.1,204.5c0,10.8,0,21.7,0,32.5
			c0,6.6,2.1,12.1,8.2,15.4c6.2,3.2,11.8,1.6,17.2-2.3c15.1-11,30.2-21.9,45.3-32.9c9.9-7.3,9.9-18.6-0.1-25.8
			c-15.1-11-30.2-21.8-45.3-32.9c-5.4-4-11-5.4-17.2-2.3c-6.3,3.2-8.2,8.8-8.2,15.4C174.1,182.5,174.1,193.5,174.1,204.5z"/>
		<path d="M144.3,13.8c85-28.7,198.8,6.9,244.1,113.2c43.5,102.3-6.5,221.5-110.1,262.6c-103.9,41.2-220-9.4-260.1-112.7
			C-21.6,174.2,29.4,72.2,103.7,32.1c0,2.7,0,5.1,0,7.6c0,55.7-0.6,111.3,0.2,167c0.7,48.6,36.4,88.6,84.3,96.6
			c54.6,9.1,107.6-30.2,114.8-85.2c7.5-57.4-33.3-108.7-90.7-113.7c-23.2-2-44.6,3.7-64,16.6c-1.2,0.8-2.4,1.6-4.1,2.6
			C144.3,86.6,144.3,50.2,144.3,13.8z"/>
		<path d="M174.1,204.5c0-11,0-22,0-33c0-6.6,1.9-12.2,8.2-15.4c6.2-3.2,11.8-1.7,17.2,2.3c15,11,30.2,21.9,45.3,32.9
			c9.9,7.2,10,18.6,0.1,25.8c-15,11-30.2,21.9-45.3,32.9c-5.4,3.9-11,5.6-17.2,2.3c-6.2-3.2-8.3-8.7-8.2-15.4
			C174.1,226.1,174.1,215.3,174.1,204.5C174.1,204.5,174.1,204.5,174.1,204.5z"/>
	</g>
</g>
</svg>
