<?xml version="1.0" encoding="utf-8"?>
<!-- Generator: Adobe Illustrator 17.1.0, SVG Export Plug-In . SVG Version: 6.00 Build 0)  -->
<!DOCTYPE svg PUBLIC "-//W3C//DTD SVG 1.1//EN" "http://www.w3.org/Graphics/SVG/1.1/DTD/svg11.dtd">
<svg version="1.1" id="Layer_1" xmlns="http://www.w3.org/2000/svg" xmlns:xlink="http://www.w3.org/1999/xlink" x="0px" y="0px"
	 viewBox="0 0 2644.7 2644.7" enable-background="new 0 0 2644.7 2644.7" xml:space="preserve">
<g id="BQ2PyE.tif">
	<g>
		<path d="M2604.4,1252.4c0,48,0,96,0,144c-0.6,3.9-1.4,7.8-1.8,11.7c-2.7,29.2-4.5,58.4-8.1,87.5c-9.2,75.2-26.2,148.7-49.4,220.8
			c-120.6,375.3-408.4,675.2-778.7,811c-117,42.9-237.8,68.2-362.3,75.4c-3.3,0.2-6.5,1.1-9.8,1.6c-46,0-92,0-138,0
			c-2.6-0.5-5.1-1.3-7.7-1.6c-29.2-2.8-58.4-4.9-87.5-8.3c-61.9-7.2-122.8-20-182.8-37c-332.2-94.2-612.3-317.9-777.1-620.4
			C138,1821,93.9,1698.1,68.8,1568.4c-10.9-56.3-18.1-113.1-20.9-170.4c-0.4-8.6-2.3-17.1-3.5-25.6c0-32,0-64,0-96
			c0.6-2.5,1.6-5,1.8-7.6c2-23.6,3.8-47.1,5.9-70.7c5.2-56.8,14.5-112.9,27.9-168.3C146,757.2,285.4,529,499.2,348
			C720.9,160.2,978.4,60.6,1268.6,45.9c3.3-0.2,6.5-1,9.7-1.5c32,0,64,0,96,0c2.9,0.5,5.8,1.4,8.7,1.5c42.9,2,85.7,6.1,128.2,12.2
			c72,10.3,142.6,26.8,211.7,49.4c376.1,122.9,675.5,413.8,808.7,786.3c40.3,112.8,65.4,229,71,349
			C2602.8,1246,2603.8,1249.2,2604.4,1252.4z M1147.9,721.6c-39.7,0.9-68.6,1.4-97.6,2.4c-29,1-58,2-86.8,4.2
			c-40.8,3-81.8,5.7-122.4,10.9c-50.5,6.5-100.8,14.6-150.9,23.6c-55.1,9.9-109.4,23.3-162.9,39.5c-54.3,16.4-89.3,67.9-85.2,124.2
			c3.5,47.8,36.7,89.6,82.4,104.2c26.4,8.4,52.4,6.4,78.6-1.4c66.5-19.8,134.2-33.8,202.7-44.4c74.5-11.5,149.4-18.4,224.7-21.7
			c87.6-3.9,175.2-2.9,262.8,2.8c73.8,4.8,147.3,12.8,220.4,24.3c93.9,14.7,186.4,35.1,277.3,63c99.9,30.6,196.5,69.3,286.6,122.9
			c4,2.4,8.2,4.4,12.4,6.5c22.2,11.6,45.7,16.2,70.6,12.1c47-7.7,80.6-32.9,96.6-78.1c16-45.4,6.4-86.6-25.9-122.3
			c-10.4-11.5-23.3-19.7-36.7-27.4c-105.5-60.8-217.4-106.7-333.7-142.4c-110.3-33.9-222.8-58-337-74.7
			c-74.9-10.9-150.1-18.7-225.6-22.8C1244.5,724.1,1190.9,723.1,1147.9,721.6z M1110.7,1161.4c-38.3,1.5-76.6,2.8-114.9,4.6
			c-57.6,2.8-114.8,9.3-171.8,18c-73.5,11.3-146,27-217.2,48.5c-12,3.6-23.8,8.9-34.3,15.7c-36.4,23.3-52.3,66.9-41,108.1
			c13.8,50.6,67.3,86.2,125.5,69.4c12.1-3.5,24.1-7.7,36.3-10.9c118-31.3,238.2-48.1,360.1-51.9c100.8-3.1,201.2,2.1,301.1,16
			c74.9,10.4,149,25.4,221.9,45.6c122.2,33.9,239,80.7,348.2,145.6c4.9,2.9,9.8,5.7,14.8,8.3c19.2,9.9,39.3,13.6,60.9,10.4
			c54-8,92.5-61.9,82.2-115.5c-5.6-29-19.6-52.1-45-67.8c-5.1-3.2-10.1-6.5-15.2-9.5c-66.2-39.6-135.3-73.1-206.8-101.8
			c-167.8-67.3-342.3-106.5-522-123.4C1232.7,1165.1,1171.8,1162.2,1110.7,1161.4z M1127.2,1579.1c-38.6,1.6-77.3,2.2-115.8,5
			c-46.5,3.3-93,7.4-139.2,12.9c-75.4,9-150,23.3-224.1,39.4c-43.8,9.6-72.8,49.2-66,91.7c6.5,40.6,44.9,71.9,85.8,66.8
			c17.1-2.1,33.9-6.9,50.8-10.5c59.3-12.7,119-22.7,179.1-30.5c62.2-8,124.6-13,187.2-14.9c64.3-1.9,128.5,0.5,192.6,7
			c61.4,6.2,122.1,16.1,182.1,30.4c118,28.2,229.9,71.7,333.9,134.6c6.3,3.8,12.7,7.3,19.3,10.4c16.6,7.8,34,9.4,51.7,4.8
			c45.5-11.8,68.4-56.7,57.7-97.3c-6-22.8-20.3-39.2-40.3-51.3c-39.9-24.2-81-46.2-123.2-65.9c-151.3-70.6-310.8-109.9-476.6-125.1
			C1230.5,1582,1178.9,1579.5,1127.2,1579.1z"/>
	</g>
</g>
</svg>
